<svg xmlns="http://www.w3.org/2000/svg" xmlns:xlink="http://www.w3.org/1999/xlink" width="280" zoomAndPan="magnify" viewBox="0 0 210 37.5" height="50" preserveAspectRatio="xMidYMid meet" version="1.0"><defs><g/><clipPath id="085e3463cd"><path d="M 52.855469 2.515625 L 89 2.515625 L 89 36.199219 L 52.855469 36.199219 Z M 52.855469 2.515625 " clip-rule="nonzero"/></clipPath></defs><g fill="#ffffff" fill-opacity="1"><g transform="translate(8.654736, 35.358499)"><g><path d="M 18.390625 -28.015625 C 18.390625 -28.4375 18.234375 -28.671875 17.734375 -28.671875 L 2.65625 -28.671875 C 2.296875 -28.671875 2.046875 -28.4375 2.046875 -28.015625 L 2.046875 -0.65625 C 2.046875 -0.25 2.296875 0 2.65625 0 L 17.734375 0 C 18.234375 0 18.390625 -0.25 18.390625 -0.65625 L 18.390625 -4.75 C 18.390625 -5.203125 18.234375 -5.40625 17.734375 -5.40625 L 7.625 -5.40625 L 7.625 -11.46875 L 15.328125 -11.46875 C 15.734375 -11.46875 15.984375 -11.71875 15.984375 -12.171875 L 15.984375 -16.21875 C 15.984375 -16.671875 15.734375 -16.921875 15.328125 -16.921875 L 7.625 -16.921875 L 7.625 -23.234375 L 17.734375 -23.234375 C 18.234375 -23.234375 18.390625 -23.515625 18.390625 -23.921875 Z M 18.390625 -28.015625 "/></g></g></g><g fill="#ffffff" fill-opacity="1"><g transform="translate(29.093906, 35.358499)"><g><path d="M 18.484375 -26.875 C 18.484375 -30.71875 16.390625 -32.78125 12.578125 -32.78125 L 7.984375 -32.78125 C 4.140625 -32.78125 2.046875 -30.71875 2.046875 -26.875 L 2.046875 -5.90625 C 2.046875 -2.046875 4.140625 0 7.984375 0 L 12.578125 0 C 16.390625 0 18.484375 -2.046875 18.484375 -5.90625 L 18.484375 -10.328125 C 18.484375 -10.734375 18.234375 -10.984375 17.828125 -10.984375 L 13.71875 -10.984375 C 13.28125 -10.984375 13.0625 -10.734375 13.0625 -10.328125 L 13.0625 -7.046875 C 13.0625 -5.9375 12.5 -5.40625 11.4375 -5.40625 L 9.296875 -5.40625 C 8.234375 -5.40625 7.65625 -5.9375 7.65625 -7.046875 L 7.65625 -25.734375 C 7.65625 -26.796875 8.1875 -27.359375 9.296875 -27.359375 L 11.4375 -27.359375 C 12.5 -27.359375 13.0625 -26.796875 13.0625 -25.734375 L 13.0625 -22.453125 C 13.0625 -22.046875 13.28125 -21.796875 13.71875 -21.796875 L 17.828125 -21.796875 C 18.234375 -21.796875 18.484375 -22.046875 18.484375 -22.453125 Z M 18.484375 -26.875 "/></g></g></g><g fill="#ffffff" fill-opacity="1"><g transform="translate(49.628058, 35.358499)"><g/></g></g><g fill="#ffffff" fill-opacity="1"><g transform="translate(59.868125, 35.358499)"><g/></g></g><g fill="#ffffff" fill-opacity="1"><g transform="translate(70.108192, 35.358499)"><g/></g></g><g fill="#ffffff" fill-opacity="1"><g transform="translate(80.348259, 35.358499)"><g/></g></g><g fill="#ffffff" fill-opacity="1"><g transform="translate(90.60138, 35.358499)"><g><path d="M 19.171875 -32.78125 C 18.6875 -32.78125 18.390625 -32.53125 18.265625 -32.03125 L 13.71875 -11.640625 L 9.171875 -32.03125 C 9.046875 -32.53125 8.765625 -32.78125 8.28125 -32.78125 L 2.875 -32.78125 C 2.328125 -32.78125 2.046875 -32.484375 2.046875 -31.953125 L 2.046875 -0.8125 C 2.046875 -0.28125 2.328125 0 2.875 0 L 6.640625 0 C 7.171875 0 7.453125 -0.28125 7.453125 -0.8125 L 7.453125 -19.25 L 7.75 -19.25 L 11.796875 -0.734375 C 11.921875 -0.25 12.203125 0 12.703125 0 L 14.703125 0 C 15.203125 0 15.484375 -0.25 15.609375 -0.734375 L 19.671875 -19.25 L 19.953125 -19.25 L 19.953125 -0.8125 C 19.953125 -0.28125 20.234375 0 20.765625 0 L 24.578125 0 C 25.109375 0 25.40625 -0.28125 25.40625 -0.8125 L 25.40625 -31.953125 C 25.40625 -32.484375 25.109375 -32.78125 24.578125 -32.78125 Z M 19.171875 -32.78125 "/></g></g></g><g fill="#ffffff" fill-opacity="1"><g transform="translate(123.656978, 34.615396)"><g><path d="M 19.4375 -28.265625 C 19.4375 -32.3125 17.234375 -34.46875 13.1875 -34.46875 L 8.1875 -34.46875 C 4.265625 -34.46875 2.15625 -32.5 2.15625 -28.78125 L 2.15625 -27.015625 C 2.15625 -26.453125 2.453125 -26.15625 3.015625 -26.15625 L 7.15625 -26.15625 C 7.71875 -26.15625 8.015625 -26.453125 8.015625 -27.015625 L 8.015625 -28.78125 L 12.84375 -28.78125 C 13.40625 -28.78125 13.703125 -28.484375 13.703125 -27.921875 L 13.703125 -21.765625 C 13.703125 -20.6875 13.09375 -20.078125 11.984375 -20.078125 L 6.890625 -20.078125 C 6.328125 -20.078125 6.03125 -19.78125 6.03125 -19.21875 L 6.03125 -15.25 C 6.03125 -14.6875 6.328125 -14.390625 6.890625 -14.390625 L 11.984375 -14.390625 C 13.140625 -14.390625 13.703125 -13.796875 13.703125 -12.671875 L 13.703125 -6.546875 C 13.703125 -5.984375 13.40625 -5.6875 12.84375 -5.6875 L 8.015625 -5.6875 L 8.015625 -7.453125 C 8.015625 -8.015625 7.71875 -8.3125 7.15625 -8.3125 L 3.015625 -8.3125 C 2.453125 -8.3125 2.15625 -8.015625 2.15625 -7.453125 L 2.15625 -6.03125 C 2.15625 -2.109375 4.265625 0 8.1875 0 L 13.1875 0 C 17.234375 0 19.4375 -2.15625 19.4375 -6.203125 L 19.4375 -14.140625 C 19.4375 -15.734375 18.265625 -16.9375 16.71875 -17.1875 L 16.71875 -17.28125 C 18.265625 -17.546875 19.4375 -18.75 19.4375 -20.34375 Z M 19.4375 -28.265625 "/></g></g></g><g fill="#ffffff" fill-opacity="1"><g transform="translate(145.24265, 34.615396)"><g><path d="M 9.609375 -21.15625 L 14.828125 -33.484375 C 15.078125 -34.09375 14.828125 -34.46875 14.171875 -34.46875 L 9.703125 -34.46875 C 9.171875 -34.46875 8.875 -34.265625 8.703125 -33.828125 L 2.578125 -19.265625 C 2.28125 -18.484375 2.15625 -17.921875 2.15625 -17.109375 L 2.15625 -6.03125 C 2.15625 -2.109375 4.265625 0 8.1875 0 L 13.359375 0 C 17.28125 0 19.390625 -2.109375 19.390625 -6.03125 L 19.390625 -15.125 C 19.390625 -19.046875 17.28125 -21.15625 13.359375 -21.15625 Z M 9.5625 -5.6875 C 8.453125 -5.6875 7.84375 -6.296875 7.84375 -7.40625 L 7.84375 -13.75 C 7.84375 -14.875 8.453125 -15.46875 9.5625 -15.46875 L 11.984375 -15.46875 C 13.09375 -15.46875 13.703125 -14.875 13.703125 -13.75 L 13.703125 -7.40625 C 13.703125 -6.296875 13.09375 -5.6875 11.984375 -5.6875 Z M 9.5625 -5.6875 "/></g></g></g><g fill="#ffffff" fill-opacity="1"><g transform="translate(166.785241, 34.615396)"><g><path d="M 2.15625 -6.203125 C 2.15625 -2.15625 4.3125 0 8.359375 0 L 13.1875 0 C 17.234375 0 19.390625 -2.15625 19.390625 -6.203125 L 19.390625 -28.265625 C 19.390625 -32.3125 17.234375 -34.46875 13.1875 -34.46875 L 8.359375 -34.46875 C 4.3125 -34.46875 2.15625 -32.3125 2.15625 -28.265625 Z M 9.609375 -5.5625 C 8.484375 -5.5625 7.890625 -6.125 7.890625 -7.28125 L 7.890625 -27.1875 C 7.890625 -28.3125 8.484375 -28.921875 9.609375 -28.921875 L 12.109375 -28.921875 C 13.234375 -28.921875 13.828125 -28.3125 13.828125 -27.1875 L 13.828125 -7.28125 C 13.828125 -6.125 13.234375 -5.5625 12.109375 -5.5625 Z M 9.609375 -5.5625 "/></g></g></g><g fill="#ffffff" fill-opacity="1"><g transform="translate(188.327832, 34.615396)"><g><path d="M 6.890625 -34.734375 C 3.75 -34.734375 1.296875 -32.1875 1.296875 -29.09375 C 1.296875 -26.03125 3.75 -23.53125 6.890625 -23.53125 C 9.953125 -23.53125 12.453125 -26.03125 12.453125 -29.09375 C 12.453125 -32.1875 9.953125 -34.734375 6.890625 -34.734375 Z M 6.890625 -31.078125 C 7.921875 -31.078125 8.828125 -30.171875 8.828125 -29.09375 C 8.828125 -28.046875 7.921875 -27.15625 6.890625 -27.15625 C 5.8125 -27.15625 4.90625 -28.046875 4.90625 -29.09375 C 4.90625 -30.171875 5.8125 -31.078125 6.890625 -31.078125 Z M 6.890625 -31.078125 "/></g></g></g><path fill="#ffffff" d="M 65.941406 28.4375 C 66.53125 28.4375 67.011719 28.917969 67.011719 29.511719 C 67.011719 30.101562 66.53125 30.582031 65.941406 30.582031 C 65.351562 30.582031 64.871094 30.101562 64.871094 29.511719 C 64.871094 28.917969 65.351562 28.4375 65.941406 28.4375 Z M 65.941406 28.4375 " fill-opacity="1" fill-rule="evenodd"/><path fill="#ffffff" d="M 72.996094 28.4375 C 73.585938 28.4375 74.066406 28.917969 74.066406 29.511719 C 74.066406 30.101562 73.585938 30.582031 72.996094 30.582031 C 72.402344 30.582031 71.925781 30.101562 71.925781 29.511719 C 71.925781 28.917969 72.402344 28.4375 72.996094 28.4375 Z M 72.996094 28.4375 " fill-opacity="1" fill-rule="evenodd"/><path fill="#ffffff" d="M 77.132812 16.898438 L 76.027344 24.367188 L 62.777344 24.367188 L 61.894531 16.898438 Z M 77.132812 16.898438 " fill-opacity="1" fill-rule="evenodd"/><path fill="#ffca2c" d="M 81.421875 12.136719 L 85.5 10.492188 C 85.167969 9.703125 84.386719 9.148438 83.472656 9.148438 C 82.261719 9.148438 81.277344 10.132812 81.277344 11.347656 C 81.277344 11.625 81.328125 11.890625 81.421875 12.136719 Z M 83.386719 6.472656 C 86.082031 6.472656 88.261719 8.65625 88.261719 11.347656 C 88.261719 13.265625 87.152344 14.929688 85.542969 15.722656 C 84.890625 16.042969 84.160156 16.222656 83.386719 16.222656 C 80.695312 16.222656 78.511719 14.039062 78.511719 11.347656 C 78.511719 9.679688 79.351562 8.207031 80.628906 7.328125 C 81.414062 6.789062 82.363281 6.472656 83.386719 6.472656 Z M 83.386719 6.472656 " fill-opacity="1" fill-rule="evenodd"/><path fill="#ffca2c" d="M 85.5 10.492188 L 81.421875 12.136719 C 81.328125 11.894531 81.277344 11.625 81.277344 11.347656 C 81.277344 10.132812 82.261719 9.148438 83.472656 9.148438 C 84.386719 9.148438 85.167969 9.703125 85.5 10.492188 Z M 85.5 10.492188 " fill-opacity="1" fill-rule="evenodd"/><path fill="#ffca2c" d="M 62.777344 24.367188 L 76.03125 24.367188 L 77.132812 16.898438 L 61.894531 16.898438 Z M 85.542969 15.722656 C 85.808594 16.890625 85.949219 18.109375 85.949219 19.359375 C 85.949219 28.339844 78.667969 35.621094 69.6875 35.621094 C 60.703125 35.621094 53.421875 28.339844 53.421875 19.359375 C 53.421875 10.375 60.703125 3.09375 69.6875 3.09375 C 73.902344 3.09375 77.742188 4.699219 80.628906 7.328125 C 79.351562 8.207031 78.511719 9.679688 78.511719 11.347656 C 78.511719 14.039062 80.695312 16.222656 83.386719 16.222656 C 84.160156 16.222656 84.890625 16.042969 85.542969 15.722656 Z M 74.066406 29.511719 C 74.066406 28.917969 73.585938 28.4375 72.996094 28.4375 C 72.402344 28.4375 71.925781 28.917969 71.925781 29.511719 C 71.925781 30.101562 72.402344 30.582031 72.996094 30.582031 C 73.585938 30.582031 74.066406 30.101562 74.066406 29.511719 Z M 67.011719 29.511719 C 67.011719 28.917969 66.53125 28.4375 65.941406 28.4375 C 65.351562 28.4375 64.871094 28.917969 64.871094 29.511719 C 64.871094 30.101562 65.351562 30.582031 65.941406 30.582031 C 66.53125 30.582031 67.011719 30.101562 67.011719 29.511719 Z M 67.011719 29.511719 " fill-opacity="1" fill-rule="evenodd"/><path fill="#000000" d="M 77.132812 16.335938 L 62.394531 16.335938 L 62.226562 14.914062 C 62.191406 14.625 61.945312 14.410156 61.652344 14.417969 L 58.707031 14.492188 C 58.398438 14.5 58.152344 14.757812 58.160156 15.066406 C 58.167969 15.375 58.425781 15.621094 58.734375 15.613281 L 61.171875 15.554688 L 62.457031 26.75 C 62.488281 27.039062 62.730469 27.253906 63.015625 27.253906 L 76.125 27.253906 C 76.433594 27.253906 76.683594 27.003906 76.683594 26.691406 C 76.683594 26.382812 76.433594 26.132812 76.125 26.132812 L 63.523438 26.132812 L 63.402344 24.929688 L 76.027344 24.929688 C 76.308594 24.929688 76.542969 24.722656 76.585938 24.449219 L 77.6875 16.980469 C 77.710938 16.816406 77.664062 16.652344 77.558594 16.53125 C 77.449219 16.40625 77.292969 16.335938 77.132812 16.335938 Z M 75.542969 23.804688 L 63.277344 23.804688 L 62.527344 17.460938 L 76.480469 17.460938 Z M 75.542969 23.804688 " fill-opacity="1" fill-rule="evenodd"/><path fill="#000000" d="M 65.941406 27.878906 C 65.042969 27.878906 64.308594 28.609375 64.308594 29.511719 C 64.308594 30.410156 65.042969 31.144531 65.941406 31.144531 C 66.84375 31.144531 67.574219 30.410156 67.574219 29.511719 C 67.574219 28.609375 66.84375 27.878906 65.941406 27.878906 Z M 65.941406 30.019531 C 65.660156 30.019531 65.433594 29.789062 65.433594 29.511719 C 65.433594 29.230469 65.660156 29 65.941406 29 C 66.222656 29 66.449219 29.230469 66.449219 29.511719 C 66.449219 29.789062 66.222656 30.019531 65.941406 30.019531 Z M 65.941406 30.019531 " fill-opacity="1" fill-rule="evenodd"/><path fill="#000000" d="M 72.996094 27.878906 C 72.09375 27.878906 71.363281 28.609375 71.363281 29.511719 C 71.363281 30.410156 72.09375 31.144531 72.996094 31.144531 C 73.894531 31.144531 74.628906 30.410156 74.628906 29.511719 C 74.628906 28.609375 73.894531 27.878906 72.996094 27.878906 Z M 72.996094 30.019531 C 72.714844 30.019531 72.484375 29.789062 72.484375 29.511719 C 72.484375 29.230469 72.714844 29 72.996094 29 C 73.277344 29 73.503906 29.230469 73.503906 29.511719 C 73.503906 29.789062 73.277344 30.019531 72.996094 30.019531 Z M 72.996094 30.019531 " fill-opacity="1" fill-rule="evenodd"/><path fill="#000000" d="M 69.558594 22.402344 C 69.867188 22.402344 70.117188 22.152344 70.117188 21.84375 L 70.117188 19.242188 C 70.117188 18.929688 69.867188 18.679688 69.558594 18.679688 C 69.246094 18.679688 68.996094 18.929688 68.996094 19.242188 L 68.996094 21.84375 C 68.996094 22.152344 69.246094 22.402344 69.558594 22.402344 Z M 69.558594 22.402344 " fill-opacity="1" fill-rule="evenodd"/><path fill="#000000" d="M 71.558594 22.402344 C 71.867188 22.402344 72.121094 22.152344 72.121094 21.84375 L 72.121094 19.242188 C 72.121094 18.929688 71.867188 18.679688 71.558594 18.679688 C 71.246094 18.679688 70.996094 18.929688 70.996094 19.242188 L 70.996094 21.84375 C 70.996094 22.152344 71.246094 22.402344 71.558594 22.402344 Z M 71.558594 22.402344 " fill-opacity="1" fill-rule="evenodd"/><path fill="#000000" d="M 67.554688 22.402344 C 67.867188 22.402344 68.117188 22.152344 68.117188 21.84375 L 68.117188 19.242188 C 68.117188 18.929688 67.867188 18.679688 67.554688 18.679688 C 67.246094 18.679688 66.996094 18.929688 66.996094 19.242188 L 66.996094 21.84375 C 66.996094 22.152344 67.246094 22.402344 67.554688 22.402344 Z M 67.554688 22.402344 " fill-opacity="1" fill-rule="evenodd"/><path fill="#000000" d="M 83.472656 8.585938 C 81.953125 8.585938 80.714844 9.824219 80.714844 11.347656 C 80.714844 11.6875 80.777344 12.023438 80.898438 12.339844 C 81.097656 12.855469 81.441406 13.292969 81.894531 13.609375 C 82.359375 13.9375 82.90625 14.109375 83.472656 14.109375 C 84.339844 14.109375 85.140625 13.710938 85.667969 13.023438 C 85.855469 12.777344 85.808594 12.425781 85.5625 12.234375 C 85.316406 12.046875 84.964844 12.09375 84.773438 12.339844 C 84.460938 12.75 83.988281 12.984375 83.472656 12.984375 C 82.992188 12.984375 82.542969 12.769531 82.234375 12.414062 L 85.710938 11.011719 C 85.851562 10.957031 85.960938 10.847656 86.019531 10.707031 C 86.078125 10.570312 86.074219 10.410156 86.015625 10.273438 C 85.585938 9.25 84.585938 8.585938 83.472656 8.585938 Z M 81.839844 11.363281 C 81.839844 11.359375 81.839844 11.351562 81.839844 11.347656 C 81.839844 10.445312 82.574219 9.710938 83.472656 9.710938 C 83.933594 9.710938 84.359375 9.902344 84.664062 10.222656 Z M 81.839844 11.363281 " fill-opacity="1" fill-rule="evenodd"/><g clip-path="url(#085e3463cd)"><path fill="#000000" d="M 88.824219 11.347656 C 88.824219 9.894531 88.257812 8.53125 87.234375 7.503906 C 86.207031 6.476562 84.839844 5.910156 83.386719 5.910156 C 82.425781 5.910156 81.5 6.160156 80.6875 6.625 C 77.628906 3.984375 73.742188 2.53125 69.6875 2.53125 C 67.414062 2.53125 65.210938 2.976562 63.136719 3.855469 C 61.132812 4.703125 59.335938 5.914062 57.789062 7.460938 C 56.246094 9.003906 55.03125 10.804688 54.183594 12.808594 C 53.304688 14.882812 52.859375 17.085938 52.859375 19.359375 C 52.859375 21.628906 53.304688 23.832031 54.183594 25.90625 C 55.03125 27.910156 56.246094 29.710938 57.789062 31.253906 C 59.335938 32.800781 61.132812 34.011719 63.136719 34.859375 C 65.210938 35.738281 67.414062 36.183594 69.6875 36.183594 C 71.957031 36.183594 74.160156 35.738281 76.234375 34.859375 C 78.238281 34.011719 80.039062 32.800781 81.582031 31.253906 C 83.128906 29.710938 84.339844 27.910156 85.1875 25.90625 C 86.066406 23.832031 86.511719 21.628906 86.511719 19.359375 C 86.511719 18.234375 86.398438 17.109375 86.179688 16.015625 C 86.558594 15.789062 86.910156 15.511719 87.234375 15.191406 C 88.257812 14.164062 88.824219 12.800781 88.824219 11.347656 Z M 85.386719 19.359375 C 85.386719 28.015625 78.34375 35.058594 69.6875 35.058594 C 61.027344 35.058594 53.984375 28.015625 53.984375 19.359375 C 53.984375 10.699219 61.027344 3.65625 69.6875 3.65625 C 73.382812 3.65625 76.929688 4.949219 79.75 7.304688 C 79.679688 7.371094 79.609375 7.4375 79.542969 7.503906 C 78.515625 8.53125 77.949219 9.894531 77.949219 11.347656 C 77.949219 12.800781 78.515625 14.164062 79.542969 15.191406 C 80.570312 16.21875 81.9375 16.785156 83.386719 16.785156 C 83.988281 16.785156 84.574219 16.6875 85.128906 16.5 C 85.300781 17.441406 85.386719 18.398438 85.386719 19.359375 Z M 83.386719 15.660156 C 81.011719 15.660156 79.074219 13.726562 79.074219 11.347656 C 79.074219 8.96875 81.011719 7.035156 83.386719 7.035156 C 85.765625 7.035156 87.703125 8.96875 87.703125 11.347656 C 87.703125 13.726562 85.765625 15.660156 83.386719 15.660156 Z M 83.386719 15.660156 " fill-opacity="1" fill-rule="evenodd"/></g><path fill="#000000" d="M 70.003906 13.140625 C 69.609375 13.140625 69.230469 13.285156 68.9375 13.542969 C 68.707031 13.75 68.683594 14.105469 68.890625 14.335938 C 69.09375 14.570312 69.449219 14.589844 69.683594 14.386719 C 69.769531 14.308594 69.886719 14.265625 70.003906 14.265625 C 70.125 14.265625 70.238281 14.308594 70.324219 14.386719 C 70.433594 14.480469 70.566406 14.53125 70.699219 14.53125 C 70.855469 14.53125 71.007812 14.464844 71.121094 14.34375 C 71.328125 14.109375 71.308594 13.753906 71.074219 13.546875 C 70.78125 13.285156 70.398438 13.140625 70.003906 13.140625 Z M 70.003906 13.140625 " fill-opacity="1" fill-rule="evenodd"/><path fill="#000000" d="M 72.257812 12.785156 C 72.414062 12.785156 72.566406 12.722656 72.679688 12.597656 C 72.886719 12.363281 72.863281 12.011719 72.632812 11.804688 C 71.910156 11.15625 70.976562 10.800781 70.003906 10.800781 C 69.039062 10.800781 68.109375 11.152344 67.386719 11.789062 C 67.15625 11.996094 67.132812 12.351562 67.339844 12.582031 C 67.546875 12.816406 67.902344 12.839844 68.132812 12.632812 C 68.648438 12.175781 69.3125 11.921875 70.003906 11.921875 C 70.699219 11.921875 71.367188 12.179688 71.882812 12.640625 C 71.992188 12.738281 72.125 12.785156 72.257812 12.785156 Z M 72.257812 12.785156 " fill-opacity="1" fill-rule="evenodd"/><path fill="#000000" d="M 66.378906 10.648438 C 67.378906 9.765625 68.667969 9.277344 70.003906 9.277344 C 71.351562 9.277344 72.644531 9.769531 73.648438 10.667969 C 73.753906 10.761719 73.890625 10.808594 74.023438 10.808594 C 74.175781 10.808594 74.332031 10.746094 74.441406 10.621094 C 74.648438 10.390625 74.628906 10.035156 74.398438 9.828125 C 73.1875 8.746094 71.625 8.152344 70.003906 8.152344 C 68.390625 8.152344 66.839844 8.738281 65.632812 9.808594 C 65.402344 10.011719 65.378906 10.367188 65.585938 10.601562 C 65.792969 10.832031 66.148438 10.855469 66.378906 10.648438 Z M 66.378906 10.648438 " fill-opacity="1" fill-rule="evenodd"/></svg>